ply
format ascii 1.0
element vertex 100
property float x
property float y
property float z
end_header
-82.443726 -47.160904 482.354645
-83.443726 -48.160904 481.354645
-84.443726 -49.160904 480.354645
-85.443726 -50.160904 479.354645
-86.443726 -51.160904 478.354645
-87.443726 -52.160904 477.354645
-88.443726 -53.160904 476.354645
-89.443726 -54.160904 475.354645
-90.443726 -55.160904 474.354645
-91.443726 -56.160904 473.354645
-92.443726 -57.160904 472.354645
-93.443726 -58.160904 471.354645
-94.443726 -59.160904 470.354645
-95.443726 -60.160904 469.354645
-96.443726 -61.160904 468.354645
-97.443726 -62.160904 467.354645
-98.443726 -63.160904 466.354645
-99.443726 -64.160904 465.354645
-100.443726 -65.160904 464.354645
-101.443726 -66.160904 463.354645
-102.443726 -67.160904 462.354645
-103.443726 -68.160904 461.354645
-104.443726 -69.160904 460.354645
-105.443726 -70.160904 459.354645
-106.443726 -71.160904 458.354645
-107.443726 -72.160904 457.354645
-108.443726 -73.160904 456.354645
-109.443726 -74.160904 455.354645
-110.443726 -75.160904 454.354645
-111.443726 -76.160904 453.354645
-112.443726 -77.160904 452.354645
-113.443726 -78.160904 451.354645
-114.443726 -79.160904 450.354645
-115.443726 -80.160904 449.354645
-116.443726 -81.160904 448.354645
-117.443726 -82.160904 447.354645
-118.443726 -83.160904 446.354645
-119.443726 -84.160904 445.354645
-120.443726 -85.160904 444.354645
-121.443726 -86.160904 443.354645
-122.443726 -87.160904 442.354645
-123.443726 -88.160904 441.354645
-124.443726 -89.160904 440.354645
-125.443726 -90.160904 439.354645
-126.443726 -91.160904 438.354645
-127.443726 -92.160904 437.354645
-128.443726 -93.160904 436.354645
-129.443726 -94.160904 435.354645
-130.443726 -95.160904 434.354645
-131.443726 -96.160904 433.354645
-132.443726 -97.160904 432.354645
-133.443726 -98.160904 431.354645
-134.443726 -99.160904 430.354645
-135.443726 -100.160904 429.354645
-136.443726 -101.160904 428.354645
-137.443726 -102.160904 427.354645
-138.443726 -103.160904 426.354645
-139.443726 -104.160904 425.354645
-140.443726 -105.160904 424.354645
-141.443726 -106.160904 423.354645
-142.443726 -107.160904 422.354645
-143.443726 -108.160904 421.354645
-144.443726 -109.160904 420.354645
-145.443726 -110.160904 419.354645
-146.443726 -111.160904 418.354645
-147.443726 -112.160904 417.354645
-148.443726 -113.160904 416.354645
-149.443726 -114.160904 415.354645
-150.443726 -115.160904 414.354645
-151.443726 -116.160904 413.354645
-152.443726 -117.160904 412.354645
-153.443726 -118.160904 411.354645
-154.443726 -119.160904 410.354645
-155.443726 -120.160904 409.354645
-156.443726 -121.160904 408.354645
-157.443726 -122.160904 407.354645
-158.443726 -123.160904 406.354645
-159.443726 -124.160904 405.354645
-160.443726 -125.160904 404.354645
-161.443726 -126.160904 403.354645
-162.443726 -127.160904 402.354645
-163.443726 -128.160904 401.354645
-164.443726 -129.160904 400.354645
-165.443726 -130.160904 399.354645
-166.443726 -131.160904 398.354645
-167.443726 -132.160904 397.354645
-168.443726 -133.160904 396.354645
-169.443726 -134.160904 395.354645
-170.443726 -135.160904 394.354645
-171.443726 -136.160904 393.354645
-172.443726 -137.160904 392.354645
-173.443726 -138.160904 391.354645
-174.443726 -139.160904 390.354645
-175.443726 -140.160904 389.354645
-176.443726 -141.160904 388.354645
-177.443726 -142.160904 387.354645
-178.443726 -143.160904 386.354645
-179.443726 -144.160904 385.354645
-180.443726 -145.160904 384.354645
-181.443726 -146.160904 383.354645
